<svg width="160" height="40" viewBox="0 0 131 40" xmlns="http://www.w3.org/2000/svg">
    <circle cx="6.5" cy="21.4" r="13.5" fill="url(#paint0_linear_425_166)"/>
<path d="M -0.5 17 C 3.7 16 7.9 14.9 12.1 13.9 C 12.3 14.7 12.5 15.6 12.7 16.4 C 9.4 17.3 6.2 18.1 2.9 18.9 C 2.9 18.9 2.9 18.9 2.9 18.9 H 13 C 13 18.9 13 19 13 19 C 13 21.2 13 23.4 13 25.6 C 13 26.8 12 27.8 10.8 27.9 C 10.7 27.9 10.5 27.9 10.4 27.9 C 7.8 27.9 5.1 27.9 2.5 27.9 C 1.9 27.9 1.3 27.7 0.8 27.2 C 0.4 26.8 0.1 26.3 0.1 25.7 C 0.1 25.6 0.1 25.5 0.1 25.4 C 0.1 23.4 0.1 21.5 0.1 19.5 C 0.1 19.3 0.1 19.1 0 19 C -0.1 18.3 -0.3 17.7 -0.5 17.1 C -0.5 17.1 -0.5 17.1 -0.5 17 Z M 0.7 21.5 V 21.6 C 0.7 22.9 0.7 24.2 0.7 25.6 C 0.7 25.6 0.7 25.7 0.7 25.8 C 0.9 26.7 1.6 27.3 2.5 27.3 C 5.2 27.3 7.9 27.3 10.5 27.3 C 10.6 27.3 10.7 27.3 10.7 27.3 C 11.7 27.2 12.4 26.5 12.4 25.5 C 12.4 24.2 12.4 22.9 12.4 21.6 V 21.5 H 0.7 Z M 2.6 19.5 C 2.6 19.5 2.6 19.6 2.6 19.6 C 2.9 20 3.2 20.4 3.5 20.9 C 3.5 20.9 3.6 20.9 3.6 20.9 C 4 20.9 4.4 20.9 4.7 20.9 C 4.7 20.9 4.8 20.9 4.8 20.9 C 4.8 20.9 4.8 20.9 4.8 20.9 C 4.5 20.4 4.2 20 3.9 19.6 C 3.8 19.5 3.8 19.5 3.8 19.5 C 3.6 19.5 3.4 19.5 3.2 19.5 C 3 19.5 2.8 19.5 2.6 19.5 L 2.6 19.5 Z M 7.7 20.9 C 7.7 20.9 7.7 20.9 7.7 20.8 C 7.4 20.4 7.1 20 6.8 19.6 C 6.7 19.5 6.7 19.5 6.6 19.5 C 6.3 19.5 5.9 19.5 5.5 19.5 C 5.5 19.5 5.5 19.5 5.5 19.5 C 5.5 19.5 5.5 19.5 5.5 19.6 C 5.8 20 6.1 20.3 6.3 20.7 C 6.4 20.9 6.5 20.9 6.7 20.9 C 7 20.9 7.4 20.9 7.7 20.9 L 7.7 20.9 Z M 8.3 19.5 C 8.4 19.5 8.4 19.6 8.4 19.6 C 8.7 20 9 20.4 9.3 20.9 C 9.3 20.9 9.4 20.9 9.4 20.9 C 9.8 20.9 10.1 20.9 10.5 20.9 C 10.5 20.9 10.5 20.9 10.6 20.9 C 10.6 20.9 10.6 20.9 10.6 20.9 C 10.2 20.4 9.9 20 9.6 19.6 C 9.6 19.5 9.6 19.5 9.5 19.5 C 9.3 19.5 9.1 19.5 8.9 19.5 C 8.7 19.5 8.5 19.5 8.3 19.5 V 19.5 Z M 10.2 16.4 C 10.2 16.4 10.2 16.4 10.2 16.4 C 9.7 16.1 9.3 15.7 8.9 15.3 C 8.9 15.3 8.9 15.3 8.8 15.3 C 8.5 15.4 8.1 15.5 7.7 15.6 C 7.7 15.6 7.7 15.6 7.7 15.6 C 7.7 15.6 7.7 15.7 7.7 15.7 C 8.1 16 8.4 16.3 8.8 16.6 C 8.9 16.7 9 16.8 9.2 16.7 C 9.5 16.6 9.9 16.5 10.2 16.4 Z M 4.6 17.8 C 4.6 17.8 4.6 17.8 4.6 17.8 C 4.2 17.5 3.8 17.1 3.4 16.8 C 3.3 16.7 3.3 16.7 3.2 16.7 C 2.9 16.8 2.6 16.9 2.3 17 C 2.2 17 2.2 17 2.1 17 C 2.2 17.1 2.3 17.2 2.3 17.3 C 2.7 17.5 3 17.8 3.3 18.1 C 3.4 18.1 3.4 18.1 3.4 18.1 C 3.8 18 4.2 17.9 4.6 17.8 Z M 4.9 16.3 C 4.9 16.3 4.9 16.3 4.9 16.3 C 5.3 16.7 5.7 17.1 6.1 17.4 C 6.2 17.4 6.2 17.4 6.3 17.4 C 6.6 17.3 7 17.3 7.3 17.2 C 7.3 17.2 7.4 17.2 7.4 17.1 C 7 16.8 6.6 16.4 6.2 16.1 C 6.1 16 6 16 5.9 16.1 C 5.9 16.1 5.8 16.1 5.7 16.1 C 5.5 16.2 5.2 16.2 4.9 16.3 V 16.3 Z M 0.7 20.9 H 1.9 C 1.9 20.9 1.9 20.9 1.9 20.9 C 1.6 20.4 1.3 20 1 19.5 C 0.9 19.5 0.9 19.5 0.9 19.5 C 0.8 19.5 0.8 19.5 0.7 19.5 V 20.9 H 0.7 Z M 0.6 18.8 C 1 18.7 1.4 18.6 1.8 18.5 C 1.8 18.5 1.8 18.5 1.8 18.5 C 1.4 18.2 1 17.8 0.6 17.5 C 0.5 17.4 0.4 17.4 0.3 17.5 C 0.4 17.9 0.5 18.4 0.6 18.8 V 18.8 Z M 11.2 19.5 C 11.5 19.9 11.8 20.4 12.1 20.8 C 12.2 20.9 12.3 20.9 12.4 20.9 V 19.5 H 11.2 V 19.5 Z M 11.6 14.6 C 11.2 14.7 10.9 14.8 10.5 14.9 L 10.5 14.9 C 10.5 15 10.5 15 10.5 15 C 10.9 15.3 11.3 15.6 11.7 15.9 C 11.8 16 11.8 16.1 12 16 C 11.8 15.5 11.7 15.1 11.6 14.6 L 11.6 14.6 Z" fill="white"/>
<path d="M 5.3 21.9 C 5.3 21.9 5.3 21.9 5.4 21.9 C 6.7 22.5 7.9 23.1 9.1 23.7 C 9.3 23.8 9.6 23.8 9.7 24 C 9.9 24.1 9.9 24.2 9.7 24.2 C 8.5 24.9 7.3 25.5 6.1 26 C 5.7 26.1 5.6 26.3 5.4 26.4 C 5.3 26.4 5.1 26.4 5.1 26.1 C 5.1 24.9 5.1 23.4 5.1 22 C 5.1 21.9 5.1 21.9 5.3 21.9 Z" fill="white"/>

    <g id="svgGroup" stroke-linecap="round" font-size="10pt">
        <path transform="matrix(1,0,0,1.2,0,-3.8)" fill-rule="evenodd" clip-rule="evenodd"
            d="M 27.6 29.8 L 25.3 29.8 L 25.3 10.9 L 28.9 10.9 L 34 22.9 L 39.3 10.9 L 43 10.9 L 43 29.8 L 40.4 29.8 L 40.4 14.2 L 35.3 25.5 L 32.8 25.5 L 27.6 14.2 L 27.6 29.8 Z M 101.8 29.8 L 99.3 29.8 L 99.3 10.9 L 110.5 10.9 L 110.5 13.1 L 101.8 13.1 L 101.8 18.9 L 109 18.9 L 109 21 L 101.8 21 L 101.8 29.8 Z M 139.8 28.5 L 137.8 30 L 133.2 24.2 L 128.4 30 L 126.8 28.5 L 131.8 22.7 L 126.9 17.1 L 128.8 15.5 L 133.2 21.1 L 137.4 15.6 L 139.3 17.1 L 134.6 22.6 L 139.8 28.5 Z M 95.7 23.8 L 85.8 23.8 C 85.8 24.2 86 24.7 86 25.1 Q 86.5 26.1 87 26.7 C 87 26.8 87.2 26.8 87.2 26.9 Q 88.3 28 90.2 28 C 90.5 28 91 27.9 91.3 27.9 C 91.7 27.9 92 27.8 92.3 27.7 Q 93.3 27.5 94.3 27 L 94.8 29.1 C 94.3 29.3 94 29.4 93.7 29.6 C 93.3 29.7 93 29.8 92.5 29.8 C 92.2 29.9 91.7 30 91.3 30.1 C 90.8 30.1 90.3 30.1 89.8 30.1 C 89.2 30.1 88.5 30 87.8 29.9 C 86.8 29.6 85.8 29 85 28.2 Q 83.5 26.5 83.3 23.6 C 83.3 23.3 83.3 23 83.3 22.8 C 83.3 22.1 83.3 21.4 83.5 20.7 C 83.7 20.1 83.8 19.5 84 19 C 84.5 18.3 84.8 17.7 85.5 17.1 C 85.8 16.8 86 16.6 86.3 16.4 C 87.2 15.8 88.2 15.5 89 15.5 C 89.3 15.4 89.5 15.4 89.7 15.4 C 90.2 15.4 90.7 15.5 91.2 15.6 Q 92.2 15.8 93 16.3 Q 94.3 17.2 95 18.7 Q 95.7 20.2 95.7 21.9 C 95.7 22.6 95.7 23.2 95.7 23.8 C 95.7 23.8 95.7 23.8 95.7 23.8 Z M 69.3 29.8 L 66.8 29.8 L 61.3 16.4 L 63.5 15.5 L 68.3 27 L 73 15.5 L 75 16.4 L 69.3 29.8 Z M 112.5 25.4 L 112.5 9.8 L 114.8 9.8 L 114.8 25.2 Q 114.8 26 115 26.6 C 115.2 26.9 115.3 27.1 115.5 27.3 C 115.8 27.7 116.3 27.9 116.8 28 C 116.8 28 117 28 117.2 28 Q 117.7 28 118.2 27.9 Q 118.5 27.8 119 27.7 C 119 27.6 119 27.6 119 27.6 L 119.7 29.6 C 119.4 29.6 119.3 29.7 119.2 29.8 Q 119 29.8 118.8 29.9 C 118.7 29.9 118.5 29.9 118.5 30 Q 117.7 30.1 116.8 30.1 C 116.3 30.1 116 30.1 115.5 30 C 115.2 29.9 114.8 29.8 114.5 29.7 C 114 29.4 113.5 28.9 113.2 28.4 C 113.2 28.3 113 28.2 113 28.1 C 112.8 27.8 112.8 27.5 112.7 27.1 Q 112.5 26.6 112.5 26 C 112.5 25.8 112.5 25.6 112.5 25.4 Z M 51 29.8 C 51.9 30 52.6 30.1 53.5 30.1 C 53.6 30.1 53.9 30.1 54 30.1 C 55 30 56 29.7 57 29.2 Q 58.5 28.3 59.5 26.6 C 59.8 26 60 25.4 60.3 24.7 C 60.3 24.1 60.5 23.4 60.5 22.7 C 60.5 22.2 60.3 21.7 60.3 21.1 C 60.2 20.3 59.8 19.6 59.5 18.9 Q 58.5 17.2 57 16.3 C 56.5 16.1 56.2 15.9 55.8 15.8 C 55 15.6 54.1 15.4 53.5 15.4 C 53.3 15.4 53.1 15.4 53 15.5 C 51.9 15.5 50.9 15.8 49.9 16.3 Q 48.3 17.2 47.4 18.9 C 47 19.5 46.8 20.2 46.5 20.9 C 46.5 21.5 46.5 22.2 46.5 22.8 Q 46.5 24.9 47.4 26.6 Q 48.3 28.3 49.9 29.2 C 50.3 29.4 50.6 29.6 51 29.8 Z M 80 29.8 L 77.5 29.8 L 77.5 15.8 L 80 15.8 L 80 29.8 Z M 124.3 29.8 L 121.9 29.8 L 121.9 15.8 L 124.3 15.8 L 124.3 29.8 Z M 53.5 28 C 53.9 28 54.4 27.9 54.9 27.8 C 55.5 27.6 56.3 27.1 56.8 26.5 C 57.3 25.9 57.7 25.1 57.8 24.3 C 57.8 23.8 58 23.3 58 22.8 C 58 22.1 57.8 21.4 57.5 20.8 C 57.5 20.6 57.5 20.4 57.3 20.2 C 57 19.6 56.7 19.1 56.3 18.7 C 56 18.6 55.8 18.4 55.8 18.3 Q 54.8 17.6 53.5 17.6 C 53 17.6 52.5 17.7 52 17.8 C 51.3 18 50.5 18.4 50 19 C 49.6 19.6 49.3 20.3 49 21 Q 49 21.8 49 22.7 Q 49 24.1 49.5 25.3 C 49.8 25.8 50 26.3 50.5 26.7 C 50.6 26.9 50.9 27.1 51.1 27.3 Q 52.1 28 53.5 28 Z M 85.8 21.8 L 93.5 21.8 Q 93.5 20.3 93 19.3 C 92.8 19.1 92.7 18.9 92.5 18.7 C 92 18.1 91.3 17.8 90.5 17.6 C 90.3 17.6 90 17.5 89.5 17.5 C 89.2 17.5 88.7 17.6 88.3 17.8 C 87.8 18 87.3 18.3 87 18.6 C 86.7 19 86.3 19.4 86.3 19.9 Q 85.8 20.7 85.8 21.8 Z M 77.5 12.9 C 77.8 13.2 78.3 13.4 78.8 13.4 C 78.8 13.4 79 13.3 79.2 13.3 C 79.5 13.3 79.8 13.1 80 12.9 C 80.2 12.7 80.3 12.5 80.3 12.2 C 80.3 12 80.5 11.8 80.5 11.7 C 80.5 11.7 80.5 11.6 80.5 11.6 C 80.5 11.2 80.3 10.8 80 10.5 Q 79.5 10 78.8 10 C 78.5 10 78.5 10 78.3 10 C 78 10.1 77.7 10.2 77.5 10.4 C 77.3 10.6 77.2 10.9 77 11.1 C 77 11.3 77 11.5 77 11.7 C 77 11.9 77 12.1 77.2 12.3 C 77.3 12.5 77.3 12.7 77.5 12.8 C 77.5 12.9 77.5 12.9 77.5 12.9 Z M 121.9 12.9 C 122.3 13.2 122.7 13.4 123.2 13.4 C 123.3 13.4 123.3 13.3 123.6 13.3 C 123.8 13.3 124.2 13.1 124.3 12.9 C 124.6 12.7 124.7 12.5 124.8 12.2 C 124.8 12 124.8 11.8 124.8 11.7 C 124.8 11.7 124.8 11.6 124.8 11.6 C 124.8 11.2 124.7 10.8 124.3 10.5 Q 123.8 10 123.2 10 C 122.9 10 122.8 10 122.7 10 C 122.3 10.1 122.2 10.2 121.8 10.4 C 121.7 10.6 121.6 10.9 121.4 11.1 C 121.4 11.3 121.4 11.5 121.4 11.7 C 121.4 11.9 121.4 12.1 121.6 12.3 C 121.7 12.5 121.8 12.7 121.9 12.8 C 121.9 12.9 121.9 12.9 121.9 12.9 Z"
            fill="url(#paint1_linear_425_166)"/>
    </g>
    <defs>
<linearGradient id="paint0_linear_425_166" x1="4.66832" y1="24.1098" x2="34.1078" y2="13.9886" gradientUnits="userSpaceOnUse">
<stop stop-color="#f89e00"/>
<stop offset="1" stop-color="#da2f68"/>
</linearGradient>
<linearGradient id="paint1_linear_425_166" x1="35.4961" y1="26.2198" x2="124.453" y2="23.9271" gradientUnits="userSpaceOnUse">
<stop stop-color="#f89e00"/>
<stop offset="1" stop-color="#da2f68"/>
</linearGradient>
</defs>
</svg>