<svg xmlns="http://www.w3.org/2000/svg" width="160" height="40" viewBox="0 0 131 40"><circle cx="6.5" cy="21.4" r="13.5" fill="url(#paint0_linear_425_166)"/><path fill="#fff" d="M -0.5 17 C 3.7 16 7.9 14.9 12.1 13.9 C 12.3 14.7 12.5 15.6 12.7 16.4 C 9.4 17.3 6.2 18.1 2.9 18.9 C 2.9 18.9 2.9 18.9 2.9 18.9 H 13 C 13 18.9 13 19 13 19 C 13 21.2 13 23.4 13 25.6 C 13 26.8 12 27.8 10.8 27.9 C 10.7 27.9 10.5 27.9 10.4 27.9 C 7.8 27.9 5.1 27.9 2.5 27.9 C 1.9 27.9 1.3 27.7 0.8 27.2 C 0.4 26.8 0.1 26.3 0.1 25.7 C 0.1 25.6 0.1 25.5 0.1 25.4 C 0.1 23.4 0.1 21.5 0.1 19.5 C 0.1 19.3 0.1 19.1 0 19 C -0.1 18.3 -0.3 17.7 -0.5 17.1 C -0.5 17.1 -0.5 17.1 -0.5 17 Z M 0.7 21.5 V 21.6 C 0.7 22.9 0.7 24.2 0.7 25.6 C 0.7 25.6 0.7 25.7 0.7 25.8 C 0.9 26.7 1.6 27.3 2.5 27.3 C 5.2 27.3 7.9 27.3 10.5 27.3 C 10.6 27.3 10.7 27.3 10.7 27.3 C 11.7 27.2 12.4 26.5 12.4 25.5 C 12.4 24.2 12.4 22.9 12.4 21.6 V 21.5 H 0.7 Z M 2.6 19.5 C 2.6 19.5 2.6 19.6 2.6 19.6 C 2.9 20 3.2 20.4 3.5 20.9 C 3.5 20.9 3.6 20.9 3.6 20.9 C 4 20.9 4.4 20.9 4.7 20.9 C 4.7 20.9 4.8 20.9 4.8 20.9 C 4.8 20.9 4.8 20.9 4.8 20.9 C 4.5 20.4 4.2 20 3.9 19.6 C 3.8 19.5 3.8 19.5 3.8 19.5 C 3.6 19.5 3.4 19.5 3.2 19.5 C 3 19.5 2.8 19.5 2.6 19.5 L 2.6 19.5 Z M 7.7 20.9 C 7.7 20.9 7.7 20.9 7.7 20.8 C 7.4 20.4 7.1 20 6.8 19.6 C 6.7 19.5 6.7 19.5 6.6 19.5 C 6.3 19.5 5.9 19.5 5.5 19.5 C 5.5 19.5 5.5 19.5 5.5 19.5 C 5.5 19.5 5.5 19.5 5.5 19.6 C 5.8 20 6.1 20.3 6.3 20.7 C 6.4 20.9 6.5 20.9 6.7 20.9 C 7 20.9 7.4 20.9 7.7 20.9 L 7.7 20.9 Z M 8.3 19.5 C 8.4 19.5 8.4 19.6 8.4 19.6 C 8.7 20 9 20.4 9.3 20.9 C 9.3 20.9 9.4 20.9 9.4 20.9 C 9.8 20.9 10.1 20.9 10.5 20.9 C 10.5 20.9 10.5 20.9 10.6 20.9 C 10.6 20.9 10.6 20.9 10.6 20.9 C 10.2 20.4 9.9 20 9.6 19.6 C 9.6 19.5 9.6 19.5 9.5 19.5 C 9.3 19.5 9.1 19.5 8.9 19.5 C 8.7 19.5 8.5 19.5 8.3 19.5 V 19.5 Z M 10.2 16.4 C 10.2 16.4 10.2 16.4 10.2 16.4 C 9.7 16.1 9.3 15.7 8.9 15.3 C 8.9 15.3 8.9 15.3 8.8 15.3 C 8.5 15.4 8.1 15.5 7.7 15.6 C 7.7 15.6 7.7 15.6 7.7 15.6 C 7.7 15.6 7.7 15.7 7.7 15.7 C 8.1 16 8.4 16.3 8.8 16.6 C 8.9 16.7 9 16.8 9.2 16.7 C 9.5 16.6 9.9 16.5 10.2 16.4 Z M 4.6 17.8 C 4.6 17.8 4.6 17.8 4.6 17.8 C 4.2 17.5 3.8 17.1 3.4 16.8 C 3.3 16.7 3.3 16.7 3.2 16.7 C 2.9 16.8 2.6 16.9 2.3 17 C 2.2 17 2.2 17 2.1 17 C 2.2 17.1 2.3 17.2 2.3 17.3 C 2.7 17.5 3 17.8 3.3 18.1 C 3.4 18.1 3.4 18.1 3.4 18.1 C 3.8 18 4.2 17.9 4.6 17.8 Z M 4.9 16.3 C 4.9 16.3 4.9 16.3 4.9 16.3 C 5.3 16.7 5.7 17.1 6.1 17.4 C 6.2 17.4 6.2 17.4 6.3 17.4 C 6.6 17.3 7 17.3 7.3 17.2 C 7.3 17.2 7.4 17.2 7.4 17.1 C 7 16.8 6.6 16.4 6.2 16.1 C 6.1 16 6 16 5.9 16.1 C 5.9 16.1 5.8 16.1 5.7 16.1 C 5.5 16.2 5.2 16.2 4.9 16.3 V 16.3 Z M 0.7 20.9 H 1.9 C 1.9 20.9 1.9 20.9 1.9 20.9 C 1.6 20.4 1.3 20 1 19.5 C 0.9 19.5 0.9 19.5 0.9 19.5 C 0.8 19.5 0.8 19.5 0.7 19.5 V 20.9 H 0.7 Z M 0.6 18.8 C 1 18.7 1.4 18.6 1.8 18.5 C 1.8 18.5 1.8 18.5 1.8 18.5 C 1.4 18.2 1 17.8 0.6 17.5 C 0.5 17.4 0.4 17.4 0.3 17.5 C 0.4 17.9 0.5 18.4 0.6 18.8 V 18.8 Z M 11.2 19.5 C 11.5 19.9 11.8 20.4 12.1 20.8 C 12.2 20.9 12.3 20.9 12.4 20.9 V 19.5 H 11.2 V 19.5 Z M 11.6 14.6 C 11.2 14.7 10.9 14.8 10.5 14.9 L 10.5 14.9 C 10.5 15 10.5 15 10.5 15 C 10.9 15.3 11.3 15.6 11.7 15.9 C 11.8 16 11.8 16.1 12 16 C 11.8 15.5 11.7 15.1 11.6 14.6 L 11.6 14.6 Z"/><path fill="#fff" d="M 5.3 21.9 C 5.3 21.9 5.3 21.9 5.4 21.9 C 6.7 22.5 7.9 23.1 9.1 23.7 C 9.3 23.8 9.6 23.8 9.7 24 C 9.9 24.1 9.9 24.2 9.7 24.2 C 8.5 24.9 7.3 25.5 6.1 26 C 5.7 26.1 5.6 26.3 5.4 26.4 C 5.3 26.4 5.1 26.4 5.1 26.1 C 5.1 24.9 5.1 23.4 5.1 22 C 5.1 21.9 5.1 21.9 5.3 21.9 Z"/><g id="svgGroup" stroke-linecap="round" font-size="10pt"><path fill="url(#paint1_linear_425_166)" fill-rule="evenodd" d="M 32.7 26.4 L 31.3 26.4 L 31.3 15.2 L 33.4 15.2 L 36.5 22.3 L 39.6 15.2 L 41.8 15.2 L 41.8 26.4 L 40.2 26.4 L 40.2 17.1 L 37.2 23.9 L 35.7 23.9 L 32.7 17.1 L 32.7 26.4 Z M 77 26.4 L 75.4 26.4 L 75.4 15.2 L 77 15.2 L 77 20 L 82.5 20 L 82.5 15.2 L 84 15.2 L 84 26.4 L 82.5 26.4 L 82.5 21.3 L 77 21.3 L 77 26.4 Z M 86.6 23.5 L 86.6 18.1 L 88.1 18.1 L 88.1 23.3 Q 88.1 24.3 88.5 24.8 C 88.7 25 89 25.2 89.3 25.3 C 89.4 25.3 89.6 25.3 89.7 25.3 Q 90.4 25.3 91 25 Q 91.6 24.8 92.1 24.3 L 92.1 18.1 L 93.5 18.1 L 93.5 24.2 Q 93.5 24.8 93.7 25 C 93.7 25.1 93.8 25.1 93.8 25.1 Q 94.1 25.4 94.5 25.4 L 94.2 26.5 Q 92.7 26.5 92.3 25.3 C 92.3 25.3 92.3 25.3 92.3 25.3 Q 91.8 25.9 91 26.2 Q 90.3 26.6 89.4 26.6 Q 88.7 26.6 88.1 26.3 Q 87.4 26 87 25.3 Q 86.7 24.8 86.7 24 C 86.6 23.8 86.6 23.6 86.6 23.5 Z M 97.7 25.7 L 97.7 26.4 L 96.4 26.4 L 96.4 14.6 L 97.8 14.6 L 97.8 18.9 C 97.9 18.8 98 18.7 98.1 18.7 Q 98.4 18.4 98.8 18.2 Q 99.4 17.9 100.2 17.9 Q 101.2 17.9 102 18.4 C 102.5 18.7 102.9 19.1 103.2 19.5 C 103.2 19.6 103.3 19.7 103.4 19.8 C 103.6 20.2 103.7 20.6 103.8 21 Q 103.9 21.5 103.9 22.2 C 103.9 22.5 103.9 22.9 103.8 23.3 C 103.7 23.5 103.7 23.7 103.6 24 C 103.4 24.3 103.3 24.6 103.1 24.9 C 103 25.1 102.8 25.2 102.7 25.4 C 102.4 25.7 102.1 25.9 101.7 26.2 C 101.7 26.2 101.6 26.2 101.5 26.3 C 101.1 26.5 100.7 26.6 100.3 26.6 C 100.3 26.6 100.2 26.6 100.1 26.6 Q 99.4 26.6 98.8 26.3 C 98.6 26.3 98.4 26.2 98.2 26.1 Q 98 25.9 97.7 25.7 Z M 73.3 22.8 L 67.5 22.8 Q 67.6 24 68.3 24.7 C 68.6 25 69.1 25.2 69.5 25.3 C 69.7 25.3 69.9 25.3 70.1 25.3 Q 70.8 25.3 71.4 25.2 Q 72 25 72.5 24.8 L 72.8 26 Q 72.2 26.3 71.5 26.4 C 71.3 26.5 71 26.5 70.7 26.6 C 70.4 26.6 70.2 26.6 69.9 26.6 Q 68.1 26.6 67.1 25.4 Q 66 24.3 66 22.2 C 66 21.8 66.1 21.4 66.1 21 C 66.2 20.7 66.3 20.3 66.5 20 C 66.7 19.6 67 19.2 67.3 18.9 C 67.4 18.7 67.6 18.6 67.8 18.5 C 68.3 18.1 68.9 17.9 69.4 17.9 C 69.6 17.9 69.7 17.9 69.8 17.9 C 70.1 17.9 70.4 17.9 70.7 18 Q 71.3 18.1 71.8 18.4 Q 72.6 18.9 73 19.8 C 73.2 20.3 73.3 20.8 73.3 21.4 C 73.4 21.5 73.4 21.6 73.4 21.7 C 73.4 22.1 73.3 22.5 73.3 22.8 C 73.3 22.8 73.3 22.8 73.3 22.8 Z M 57.8 26.4 L 56.3 26.4 L 52.9 18.5 L 54.2 17.9 L 57.1 24.8 L 59.9 17.9 L 61.1 18.5 L 57.8 26.4 Z M 46.6 26.4 C 47 26.5 47.5 26.6 48 26.6 C 48.1 26.6 48.2 26.6 48.3 26.6 C 49 26.5 49.6 26.4 50.1 26 Q 51 25.5 51.6 24.5 C 51.8 24.2 51.9 23.8 52 23.4 C 52.1 23 52.1 22.6 52.1 22.2 Q 52.1 20.9 51.6 19.9 Q 51 18.9 50.1 18.4 C 49.9 18.3 49.6 18.2 49.3 18.1 C 48.9 18 48.4 17.9 48 17.9 C 47.9 17.9 47.8 17.9 47.7 17.9 C 47.1 17.9 46.4 18.1 45.9 18.4 Q 44.9 18.9 44.4 19.9 C 44.2 20.3 44 20.7 43.9 21.1 C 43.9 21.5 43.8 21.9 43.8 22.2 C 43.8 22.5 43.9 22.7 43.9 22.9 Q 44 23.8 44.4 24.5 C 44.4 24.5 44.4 24.5 44.4 24.5 Q 44.9 25.5 45.9 26 C 46.1 26.2 46.3 26.3 46.6 26.4 Z M 64 26.4 L 62.6 26.4 L 62.6 18.1 L 64 18.1 L 64 26.4 Z M 48 25.3 C 48.3 25.3 48.5 25.3 48.8 25.2 C 49.3 25.1 49.7 24.8 50 24.5 C 50.3 24.1 50.5 23.6 50.6 23.2 C 50.6 22.9 50.7 22.6 50.7 22.2 C 50.7 21.8 50.6 21.4 50.5 21.1 C 50.4 21 50.4 20.8 50.3 20.7 Q 50 20 49.4 19.6 Q 48.8 19.2 48 19.2 C 47.7 19.2 47.4 19.2 47.1 19.3 C 46.7 19.4 46.3 19.6 46 20 Q 45.3 20.8 45.3 22.1 C 45.3 22.1 45.3 22.2 45.3 22.2 Q 45.3 23 45.7 23.8 C 45.8 24 46 24.3 46.2 24.6 C 46.3 24.7 46.5 24.8 46.6 24.9 Q 47.2 25.3 48 25.3 Z M 97.8 20.2 L 97.8 24.7 C 98 24.8 98.2 24.9 98.4 25 C 98.5 25.1 98.6 25.1 98.7 25.1 C 99 25.2 99.3 25.3 99.7 25.3 C 99.7 25.3 99.7 25.3 99.7 25.3 C 100 25.3 100.3 25.3 100.5 25.2 C 100.8 25.1 100.9 25 101.1 24.9 C 101.5 24.7 101.7 24.4 102 24.1 C 102 24 102 23.9 102.1 23.8 Q 102.4 23.1 102.4 22.2 C 102.4 21.9 102.4 21.7 102.4 21.4 Q 102.3 21 102.1 20.6 C 102.1 20.6 102.1 20.6 102.1 20.6 Q 101.7 19.9 101.2 19.5 Q 100.6 19.1 99.9 19.1 C 99.6 19.1 99.3 19.2 99 19.3 C 98.9 19.4 98.8 19.4 98.7 19.5 C 98.5 19.6 98.4 19.7 98.3 19.8 Q 98.1 19.9 97.9 20.1 C 97.9 20.1 97.9 20.2 97.8 20.2 Z M 67.5 21.7 L 72 21.7 C 72 21.4 72 21.2 72 20.9 Q 71.8 20.2 71.4 19.8 Q 70.8 19.1 69.7 19.1 Q 68.8 19.1 68.2 19.8 C 68 20 67.8 20.3 67.7 20.5 Q 67.5 21 67.5 21.7 Z M 62.6 16.4 C 62.8 16.6 63 16.7 63.3 16.7 C 63.4 16.7 63.5 16.7 63.5 16.6 C 63.7 16.6 63.9 16.5 64 16.4 C 64.1 16.3 64.2 16.1 64.3 16 C 64.3 15.9 64.3 15.8 64.3 15.6 C 64.3 15.6 64.3 15.6 64.3 15.6 C 64.3 15.4 64.2 15.1 64 14.9 C 64 14.9 64 14.9 64 14.9 C 63.8 14.7 63.6 14.6 63.3 14.6 Q 62.8 14.6 62.6 14.9 C 62.4 15 62.4 15.2 62.3 15.3 C 62.3 15.4 62.3 15.5 62.3 15.6 C 62.3 15.8 62.3 15.9 62.4 16 C 62.4 16.2 62.5 16.3 62.6 16.4 C 62.6 16.4 62.6 16.4 62.6 16.4 Z" clip-rule="evenodd" transform="matrix(1.2,0,0,1.7,-10.3,-13.1)"/></g><defs><linearGradient id="paint0_linear_425_166" x1="4.668" x2="34.108" y1="24.11" y2="13.989" gradientUnits="userSpaceOnUse"><stop stop-color="#f89e00"/><stop offset="1" stop-color="#da2f68"/></linearGradient><linearGradient id="paint1_linear_425_166" x1="35.496" x2="124.453" y1="26.22" y2="23.927" gradientUnits="userSpaceOnUse"><stop stop-color="#f89e00"/><stop offset="1" stop-color="#da2f68"/></linearGradient></defs></svg>